<svg width="76" height="64" viewBox="0 0 76 64" fill="none" xmlns="http://www.w3.org/2000/svg">
<path d="M74.5156 12.7033H74.5116C75.4456 11.4621 76 9.91979 76 8.25016C76 4.15773 72.6705 0.828125 68.5781 0.828125C64.4857 0.828125 61.1561 4.15758 61.1561 8.25016C61.1561 9.91979 61.7106 11.4621 62.6445 12.7033H62.6405C61.8208 12.7033 61.1561 13.3679 61.1561 14.1877V19.4639C59.4746 18.3902 57.723 17.4365 55.9112 16.6078V14.1877C55.9112 13.3679 55.2466 12.7033 54.4268 12.7033C53.607 12.7033 52.9424 13.3679 52.9424 14.1877V15.3807C52.4423 15.1956 51.9384 15.0188 51.4304 14.8519C50.1997 14.4477 48.954 14.102 47.6978 13.8112V10.7188C47.6978 9.89901 47.0331 9.23445 46.2134 9.23445C45.3936 9.23445 44.7291 9.89901 44.7291 10.7188V13.2322C42.9953 12.9577 41.2446 12.7907 39.4845 12.7303V8.25016C39.4845 7.43034 38.8197 6.76578 38.0001 6.76578C37.1803 6.76578 36.5157 7.43034 36.5157 8.25016V12.7305C34.7554 12.7909 33.0047 12.9579 31.2709 13.2323V10.719C31.2709 9.89916 30.6062 9.2346 29.7866 9.2346C28.9667 9.2346 28.3022 9.89916 28.3022 10.719V13.8114C27.0461 14.1022 25.8007 14.4477 24.5702 14.8518C24.0619 15.0186 23.558 15.1956 23.0574 15.3807V14.1877C23.0574 13.3679 22.3929 12.7033 21.5731 12.7033C20.7532 12.7033 20.0887 13.3679 20.0887 14.1877V16.6078C18.277 17.4365 16.5256 18.3901 14.8438 19.4637V14.1877C14.8438 13.3679 14.1792 12.7033 13.3594 12.7033H13.3554C14.2895 11.4621 14.8438 9.91979 14.8438 8.25016C14.8438 4.15773 11.5143 0.828273 7.42189 0.828273C3.32946 0.828273 0 4.15773 0 8.25016C0 9.91979 0.554267 11.4621 1.48839 12.7033H1.48438C0.664556 12.7033 0 13.3679 0 14.1877V61.6876C0 62.5074 0.664556 63.172 1.48438 63.172H7.42189H13.3594H17.9659C18.7855 63.172 19.4503 62.5074 19.4503 61.6876C19.4503 60.8679 18.7855 60.2032 17.9659 60.2032H14.8438V57.2343H61.1561V60.2032H58.034C57.2142 60.2032 56.5496 60.8679 56.5496 61.6876C56.5496 62.5074 57.2142 63.172 58.034 63.172H62.6405H68.5781H74.5156C75.3353 63.172 76 62.5074 76 61.6876V14.1877C76 13.3677 75.3353 12.7033 74.5156 12.7033ZM11.875 60.2031H7.42189H2.96876V15.6721H5.93751V21.8913C5.93751 22.7111 6.60207 23.3757 7.42189 23.3757C8.24171 23.3757 8.90627 22.7111 8.90627 21.8913V15.6721H11.875V60.2031ZM7.42189 12.7033C4.96628 12.7033 2.96876 10.7056 2.96876 8.25016C2.96876 5.7947 4.96628 3.79703 7.42189 3.79703C9.8775 3.79703 11.875 5.7947 11.875 8.25016C11.875 10.7056 9.8775 12.7033 7.42189 12.7033ZM20.0887 54.2654H14.8438V23.0387C16.5238 21.8483 18.2766 20.7981 20.0887 19.8892V54.2654ZM28.3022 54.2657H23.0574V18.5492C24.7645 17.862 26.5157 17.2951 28.3022 16.8515V54.2657ZM36.5157 54.2657H31.2709V16.234C32.9949 15.9434 34.7457 15.7638 36.5157 15.6998V54.2657ZM44.7291 54.2654H39.4845V15.6998C41.2544 15.7638 43.005 15.9434 44.7291 16.234V54.2654ZM52.9424 54.2656H47.6978V16.8517C49.4843 17.2952 51.2354 17.8621 52.9424 18.5495V54.2656ZM61.1561 54.2654H55.9112V19.8893C57.7235 20.7982 59.4762 21.8487 61.1561 23.0392V54.2654ZM73.0312 60.2031H68.5781H64.1248V15.6721H67.0937V21.8913C67.0937 22.7111 67.7584 23.3757 68.5781 23.3757C69.3978 23.3757 70.0625 22.7111 70.0625 21.8913V15.6721H73.0312V60.2031ZM68.5781 12.7033C66.1227 12.7033 64.1248 10.7056 64.1248 8.25016C64.1248 5.79456 66.1227 3.79688 68.5781 3.79688C71.0336 3.79688 73.0312 5.79456 73.0312 8.25016C73.0312 10.7055 71.0336 12.7033 68.5781 12.7033Z" fill="#4F4F4F"/>
</svg>
