<svg width="76" height="74" viewBox="0 0 76 74" fill="none" xmlns="http://www.w3.org/2000/svg">
<path d="M74.5156 60.1407C72.9554 60.1407 71.4246 60.5669 70.0889 61.3732C68.3047 62.4501 66.0879 62.4501 64.3036 61.3732C61.5731 59.7248 58.1805 59.725 55.45 61.3732C53.6658 62.4503 51.4489 62.4501 49.6647 61.3732C46.934 59.725 43.5416 59.725 40.8111 61.3732C39.1575 62.3715 37.133 62.4426 35.4249 61.5907L42.7948 54.2208C44.3643 52.6512 44.3643 50.0975 42.7948 48.5279L38.0573 43.7903L47.2508 34.5969C47.8304 34.0172 47.8304 33.0773 47.2508 32.4975C46.6711 31.9179 45.7312 31.9179 45.1514 32.4975L40.6805 36.9685L37.4193 33.7073L56.764 14.3625L60.0252 17.6238L54.3211 23.3278C53.7415 23.9074 53.7414 24.8473 54.3211 25.427C54.9009 26.0068 55.8409 26.0066 56.4204 25.427L62.8514 18.9961L69.0142 17.8243C69.7313 17.6879 70.383 17.3434 70.8985 16.8279C70.9208 16.8056 70.9421 16.7815 70.9641 16.7582C70.9671 16.7553 70.9703 16.7529 70.9735 16.7499L72.9202 14.8033C74.8057 12.9179 74.8055 9.84996 72.9202 7.96465L66.4233 1.46769C64.5378 -0.417615 61.4699 -0.417615 59.5844 1.46769L57.6377 3.41445C57.0919 3.95179 56.7068 4.61649 56.563 5.37323L55.3911 11.5369L30.5974 36.3306L25.8594 31.5926C24.2911 30.0244 21.7375 30.024 20.1664 31.5928L11.4398 40.3208C4.52096 47.2396 5.10848 56.3449 6.27119 61.6492C6.09366 61.5659 5.91835 61.4761 5.74795 61.3732C4.47138 60.6027 3.00883 60.1773 1.51837 60.143C1.1164 60.1348 0.732539 60.2861 0.446797 60.5654C0.161055 60.8448 0 61.2274 0 61.627V72.4621C0 73.2819 0.664555 73.9465 1.48438 73.9465H74.5156C75.3354 73.9465 76 73.2819 76 72.4621V61.6251C76 60.8053 75.3354 60.1407 74.5156 60.1407ZM61.6837 3.56689C62.4116 2.83881 63.5961 2.83896 64.3239 3.56689L70.8209 10.0639C71.5488 10.7916 71.5488 11.9762 70.8209 12.7041L69.9239 13.6011L60.7866 4.4639L61.6837 3.56689ZM59.2514 7.12731L67.26 15.1358L62.6188 16.0183L58.3689 11.7685L59.2514 7.12731ZM35.32 35.8066L38.5813 39.0678L35.9581 41.691L32.6969 38.4298L35.32 35.8066ZM33.8586 43.7903L27.581 50.0678C26.6819 50.967 25.2189 50.967 24.3199 50.0678C23.8842 49.6323 23.6445 49.0532 23.6445 48.4372C23.6445 47.8212 23.8843 47.2421 24.3199 46.8066L30.5973 40.529L33.8586 43.7903ZM13.5393 42.42L22.265 33.6927C22.6778 33.2805 23.3485 33.2802 23.7602 33.692L28.4982 38.43L22.2208 44.7075C20.5286 46.3997 20.2301 48.9646 21.3226 50.9663L19.452 52.8369C18.8723 53.4165 18.8723 54.3564 19.452 54.9362C19.7419 55.2261 20.1217 55.371 20.5016 55.371C20.8814 55.371 21.2614 55.2261 21.5512 54.9362L23.4218 53.0656C24.207 53.4941 25.0785 53.7098 25.9506 53.7098C27.3014 53.7098 28.6521 53.1956 29.6804 52.1674L35.9578 45.89L40.6953 50.6275C41.1074 51.0394 41.1074 51.7099 40.6953 52.1218L32.4707 60.3465C30.3515 59.8698 28.0974 60.2114 26.1722 61.3735C24.0304 62.6663 21.9365 62.147 19.8761 61.0885C17.2416 59.7316 14.0959 59.8266 11.5333 61.3735C10.8944 61.759 10.1749 62.0159 9.43632 62.1219C8.27643 57.6765 7.11149 48.8478 13.5393 42.42ZM73.0312 70.9777H2.96875V63.3578C3.40352 63.4917 3.82212 63.6785 4.21399 63.9149C6.69156 65.4103 9.71405 65.5486 12.2927 64.3302C12.5575 64.2056 12.8167 64.0671 13.0687 63.9149C14.7106 62.9229 16.8747 62.7388 18.5177 63.728C21.4584 65.4981 24.6935 65.7337 27.7076 63.9149C29.468 62.8512 31.7359 62.8551 33.4917 63.9149C36.2223 65.563 39.6147 65.563 42.3452 63.9149C44.1296 62.838 46.3465 62.838 48.1306 63.9149C50.8611 65.563 54.2536 65.563 56.9841 63.9149C58.7685 62.8378 60.9853 62.8378 62.7695 63.9149C65.5001 65.563 68.8925 65.563 71.6232 63.9149C72.0646 63.6485 72.5387 63.4455 73.0314 63.31V70.9777H73.0312Z" fill="#4F4F4F"/>
</svg>
